#N canvas 321 178 845 343 12;
#X obj 181 130 loadbang;
#X floatatom 25 62 5 0 0 0 - - - 0;
#X obj 559 174 print;
#X obj 559 93 oscparse;
#X obj 25 207 netsend -u -b;
#X obj 25 157 list trim;
#X obj 559 121 list trim;
#X obj 559 62 netreceive -u -b 8001;
#X text 557 34 Receiving from other Packet Mule users;
#X text 23 26 Sending to other Packet Mule users;
#X obj 25 96 oscformat all pd-test;
#X msg 181 157 connect localhost 7000;
#X floatatom 181 61 5 0 0 0 - - - 0;
#X obj 181 95 oscformat username pd-test;
#X text 22 232 outgoing osc addresses should start with /all/header or /username/header;
#X text 223 276 The Packet Mule OSC Bridge accepts messages from apps on port 7000 It sends messages coming from the server to apps on port 7001;
#X connect 0 0 11 0;
#X connect 1 0 10 0;
#X connect 3 0 6 0;
#X connect 5 0 4 0;
#X connect 6 0 2 0;
#X connect 7 0 3 0;
#X connect 10 0 5 0;
#X connect 11 0 4 0;
#X connect 12 0 13 0;
#X connect 13 0 5 0;
